HIERARCHY
ROOT Hips
{
  OFFSET 0.0 0.0 0.0
  CHANNELS 6 XPOSITION YPOSITION ZPOSITION ZROTATION XROTATION YROTATION 
  JOINT LeftUpLeg
  {
    OFFSET 0.08945800000000001 -0.0866707 0.0010165200000000001
    CHANNELS 3 ZROTATION XROTATION YROTATION 
    JOINT LeftLeg
    {
      OFFSET 0.0 -0.444227 0.013727000000000001
      CHANNELS 3 ZROTATION XROTATION YROTATION 
      JOINT LeftFoot
      {
        OFFSET -0.0025354900000000005 -0.42092399999999996 -0.014605900000000002
        CHANNELS 3 ZROTATION XROTATION YROTATION 
        End Site
        {
          OFFSET -0.0004 -0.0441509 0.08499100000000001
        }
      }
    }
  }
  JOINT Spine
  {
    OFFSET 0.0 0.118905 0.0
    CHANNELS 3 ZROTATION XROTATION YROTATION 
    JOINT Spine1
    {
      OFFSET 0.0 0.25657399999999997 0.00127663
      CHANNELS 3 ZROTATION XROTATION YROTATION 
      End Site
      {
        OFFSET -0.0029 0.21508359999999999 0.02525291
      }
      JOINT RightArm
      {
        OFFSET -0.162727 -0.05365632 0.0010212299999999997
        CHANNELS 3 ZROTATION XROTATION YROTATION 
        JOINT RightForeArm
        {
          OFFSET -0.26364 0.00099144 -0.0142434
          CHANNELS 3 ZROTATION XROTATION YROTATION 
          End Site
          {
            OFFSET -0.220324 0.0008536199999999999 0.010221599999999999
          }
        }
      }
      JOINT LeftArm
      {
        OFFSET 0.162727 -0.053656319900000006 0.0010212299999999997
        CHANNELS 3 ZROTATION XROTATION YROTATION 
        JOINT LeftForeArm
        {
          OFFSET 0.26259699999999997 0.00099144 -0.0142434
          CHANNELS 3 ZROTATION XROTATION YROTATION 
          End Site
          {
            OFFSET 0.220902 0.0008536199999999999 0.010221599999999999
          }
        }
      }
    }
  }
  JOINT RightUpLeg
  {
    OFFSET -0.08945800000000001 -0.0866707 0.0010165200000000001
    CHANNELS 3 ZROTATION XROTATION YROTATION 
    JOINT RightLeg
    {
      OFFSET 0.0 -0.444227 0.013727000000000001
      CHANNELS 3 ZROTATION XROTATION YROTATION 
      JOINT RightFoot
      {
        OFFSET 0.0025354900000000005 -0.42092399999999996 -0.014605900000000002
        CHANNELS 3 ZROTATION XROTATION YROTATION 
        End Site
        {
          OFFSET 0.0004 -0.0441509 0.08499100000000001
        }
      }
    }
  }
}
MOTION
Frames: 5
Frame Time: 0.033333
1.6909200000000002 1.0291408902962207 0.0346916 1.926080048771392 1.179119968216011e-16 -90.00000250447816 -2.0072399850274802 -8.42603981769778 -0.7186810422052041 2.9198098206452476 18.791300114356414 15.060599563276673 -4.418617140602737 -15.73559813064506 -0.10495456775648034 3.9066099387193023 -3.734379888608261 0.7319759520637811 -3.7092802240689333 22.61520030420827 1.7602999383926639 78.45082880671444 -25.20167170703433 2.0678363561267754 7.178769581851644 31.49719879146036 6.270849610954774 -84.09910838236983 -32.25470433645521 -8.011371349223491 -15.23429981160656 31.304597702149756 1.8306300761111678 -1.029340030328775 -9.129809703171201 0.12433400222677503 -2.0218100591875867 19.682100216098647 -13.56710015407793 5.639570230689992 -15.407404125931363 -0.006447257515692362 
1.6909800000000001 1.0290498902962208 0.0348577 2.536219993554985 1.5524299713932016e-16 -90.00000250447816 -2.0965999902689916 -9.129179618220268 -1.1671100685298097 3.0086298140555052 18.86339959123507 15.32799976173538 -4.593262516359024 -15.745698272880217 -0.11174216162567306 3.8799700665221373 -2.062170073880015 0.6958959580208648 -3.6885501730511217 21.397300735566834 1.7531399791517865 77.65130052285109 -25.957389450013928 -1.5061745327509943 6.9761703762566105 29.965600587071286 6.630199950454308 -81.89475362020744 -32.1672437641332 -4.290931876711226 -15.099499198147189 29.103699015707377 0.8418589682138884 -1.0366599654066189 -9.826439479641019 0.21738799255092628 -1.9908099649790143 19.755400098723932 -13.748099313309622 5.704810063207838 -15.364804236077994 -0.00644593725146498 
1.69177 1.0287558902962208 0.0352983 3.9849001283069274 -0.09961370000096753 -89.9399992926196 -2.3481900083464113 -10.840499736466242 -1.9690899634183738 3.083850047054621 19.081900757878362 15.918800879657729 -4.881246770542034 -15.837794836101377 -0.12576397970275388 3.8344302071179004 1.2894899829835131 0.5648979990210449 -3.7476300287112627 18.547699710060616 1.7017099353620597 75.9743866287754 -27.29840659353943 -8.192196338631348 6.623609671678892 27.45349969902291 7.316859785170023 -77.88907989842674 -31.81336824814025 2.8380923701981575 -14.942700252918499 24.8121016224389 -0.8191939993094061 -1.1524999737300352 -11.583700304018144 0.541136998198187 -1.9146401222418552 19.992899436543613 -14.065800439910888 5.797660081671815 -15.28120442818433 -0.0064433609227863495 
1.6940700000000002 1.0279168902962208 0.0357402 6.032129803707774 -0.20810699276849545 -90.11349975791627 -2.655259945504552 -13.415200162031432 -2.981990155301751 3.056720108784507 19.55630008441806 16.871400533010238 -5.133688000944766 -15.792293823398044 -0.13335501459370902 3.876639922414933 4.9712101803080335 0.442236019098961 -4.098620216666701 15.134100936482474 1.750829987830147 74.22535959744273 -28.97107040240407 -14.923982119498078 6.188980402242063 25.237499464325634 7.868169603085004 -73.86865979822798 -31.843141042732338 10.113026533251938 -14.909000099553655 21.4972998276577 -1.854769885628697 -1.325079964314334 -14.298599753807956 1.0803700811652328 -1.7369901035809971 20.588601215195446 -14.447000981452115 5.9205006070076704 -15.245004425583263 -0.00644225660326051 
1.6974799999999999 1.0264208902962209 0.0361175 8.379500616240607 -0.34709399192076923 -90.16370164831586 -3.045290000651902 -16.563599765610903 -4.464340134454095 2.9970599004883267 20.35789962314722 18.28120109657235 -5.349160405577981 -15.595594620585432 -0.13306984085564777 4.208199929728977 8.393230150245978 0.2841519844501034 -5.034850041012804 11.96099995376965 1.9361900094034803 72.91922935265036 -30.72628900021936 -20.677424410256876 5.828659748993564 22.911999344402002 8.084290448802546 -69.79973852473296 -33.14258453232726 16.428097350214315 -14.978000378096416 21.72799971215863 -1.4422499385351988 -1.4897400303908859 -17.54559996824573 1.7035000852548379 -1.4949199818244001 21.47869951500046 -15.108600425216231 6.013662679739352 -15.217504376437498 -0.006830949979048107 
